<svg width="28" height="36" viewBox="0 0 28 36" fill="none" xmlns="http://www.w3.org/2000/svg">
<path id="mo_Icon" d="M25.3452 16.4005C24.8852 15.8004 24.3252 15.2804 23.8052 14.7604C22.4652 13.5604 20.9451 12.7004 19.6651 11.4403C16.685 8.52024 16.025 3.70011 17.925 0C16.025 0.460013 14.3649 1.50004 12.9449 2.64008C7.76473 6.80019 5.72468 14.1404 8.16475 20.4406C8.24475 20.6406 8.32475 20.8406 8.32475 21.1006C8.32475 21.5406 8.02474 21.9406 7.62473 22.1006C7.16472 22.3006 6.6847 22.1806 6.30469 21.8606C6.1905 21.7662 6.09545 21.6508 6.02468 21.5206C3.76462 18.6605 3.40461 14.5604 4.92465 11.2803C1.58456 14.0004 -0.235493 18.6005 0.0245142 22.9407C0.144518 23.9407 0.264521 24.9407 0.604531 25.9407C0.884539 27.1408 1.42455 28.3408 2.02457 29.4008C4.18463 32.8609 7.92474 35.341 11.9449 35.841C16.225 36.381 20.8051 35.601 24.0852 32.6409C27.7453 29.3208 29.0253 24.0007 27.1453 19.4406L26.8853 18.9205C26.4653 18.0005 25.3452 16.4005 25.3452 16.4005ZM19.0251 29.0008C18.465 29.4808 17.545 30.0009 16.825 30.2009C14.5849 31.0009 12.3449 29.8809 11.0248 28.5608C13.4049 28.0008 14.8249 26.2407 15.2449 24.4607C15.585 22.8607 14.9449 21.5406 14.6849 20.0006C14.4449 18.5205 14.4849 17.2605 15.0249 15.8805C15.405 16.6405 15.805 17.4005 16.285 18.0005C17.825 20.0006 20.2451 20.8806 20.7651 23.6007C20.8451 23.8807 20.8851 24.1607 20.8851 24.4607C20.9451 26.1007 20.2251 27.9008 19.0251 29.0008Z" fill="black"/>
</svg>
