<svg width="36" height="36" viewBox="0 0 36 36" fill="none" xmlns="http://www.w3.org/2000/svg">
<path id="ootw_Icon" d="M33.7697 18L35.7593 14.5614C35.9984 14.1477 36.0634 13.656 35.9401 13.1944C35.8167 12.7327 35.5151 12.339 35.1015 12.0997L31.6593 10.1101V6.14533C31.6593 5.66737 31.4695 5.20898 31.1315 4.87101C30.7935 4.53304 30.3351 4.34317 29.8572 4.34317H25.8942L23.9064 0.902835C23.6664 0.489989 23.2734 0.188286 22.8125 0.0630262C22.5839 0.00106038 22.3453 -0.0149178 22.1105 0.0160178C21.8757 0.0469534 21.6494 0.124188 21.4447 0.243243L18.0025 2.23283L14.5604 0.241441C14.1465 0.00246928 13.6546 -0.0622908 13.1929 0.0614059C12.7312 0.185103 12.3376 0.487125 12.0986 0.901033L10.109 4.34317H6.14609C5.66812 4.34317 5.20973 4.53304 4.87176 4.87101C4.53379 5.20898 4.34392 5.66737 4.34392 6.14533V10.1083L0.901786 12.0979C0.696397 12.216 0.516377 12.3736 0.372066 12.5615C0.227756 12.7494 0.122001 12.964 0.0608763 13.193C-0.00024796 13.4219 -0.0155365 13.6606 0.0158891 13.8955C0.0473146 14.1303 0.124835 14.3566 0.243996 14.5614L2.23359 18L0.243996 21.4385C0.00608998 21.8526 -0.0584578 22.344 0.0644254 22.8054C0.187309 23.2669 0.487656 23.6611 0.899984 23.9021L4.34212 25.8917V29.8546C4.34212 30.3326 4.53199 30.791 4.86996 31.1289C5.20793 31.4669 5.66632 31.6568 6.14428 31.6568H10.109L12.0986 35.0989C12.2582 35.3717 12.486 35.5982 12.7596 35.7562C13.0333 35.9142 13.3433 35.9982 13.6593 36C13.9729 36 14.2847 35.9171 14.5622 35.7567L18.0007 33.7671L21.4429 35.7567C21.8567 35.9953 22.3482 36.0601 22.8097 35.9368C23.2712 35.8135 23.665 35.5122 23.9046 35.0989L25.8924 31.6568H29.8554C30.3333 31.6568 30.7917 31.4669 31.1297 31.1289C31.4677 30.791 31.6575 30.3326 31.6575 29.8546V25.8917L35.0997 23.9021C35.3047 23.7836 35.4844 23.6258 35.6284 23.4379C35.7725 23.2499 35.878 23.0354 35.9391 22.8066C36.0002 22.5778 36.0156 22.3392 35.9844 22.1045C35.9533 21.8697 35.8761 21.6434 35.7575 21.4385L33.7697 18ZM13.4953 8.97113C14.2125 8.97137 14.9002 9.2565 15.4072 9.76379C15.9141 10.2711 16.1988 10.959 16.1986 11.6762C16.1983 12.3934 15.9132 13.0811 15.4059 13.588C14.8986 14.095 14.2107 14.3797 13.4935 14.3794C12.7763 14.3792 12.0886 14.0941 11.5817 13.5868C11.0747 13.0795 10.79 12.3916 10.7903 11.6744C10.7905 10.9572 11.0756 10.2695 11.5829 9.76252C12.0902 9.25556 12.7781 8.97089 13.4953 8.97113ZM14.036 26.2719L11.1525 24.1111L21.9655 9.6938L24.849 11.8546L14.036 26.2719ZM22.5061 26.9928C22.151 26.9927 21.7994 26.9226 21.4714 26.7866C21.1433 26.6506 20.8453 26.4513 20.5943 26.2001C20.3433 25.9489 20.1442 25.6508 20.0084 25.3226C19.8726 24.9945 19.8028 24.6428 19.8029 24.2877C19.803 23.9326 19.8731 23.581 20.0091 23.253C20.1451 22.9249 20.3444 22.6269 20.5956 22.3759C20.8467 22.1249 21.1449 21.9258 21.473 21.79C21.8012 21.6542 22.1528 21.5844 22.5079 21.5845C23.2251 21.5847 23.9128 21.8698 24.4198 22.3771C24.9268 22.8844 25.2114 23.5723 25.2112 24.2895C25.2109 25.0067 24.9258 25.6944 24.4185 26.2014C23.9112 26.7083 23.2233 26.993 22.5061 26.9928Z" fill="black"/>
</svg>
